<svg xmlns="http://www.w3.org/2000/svg" width="3277" height="1024" viewBox="0 0 3277 1024"><title>Seguros Altamira</title><path fill="#f4a333" d="M585.293 525.412l-104.464 229.881 259.070-41.797z"></path><path fill="#354b91" d="M1498.982 474.998l7.884-22.634c6.242 4.384 11.439 7.717 15.522 10.054 12.318 7.007 25.622 10.485 39.861 10.485 14.358 0 25.626-3.431 33.85-10.341 7.294-6.241 10.915-13.769 10.915-22.586 0-10.436-5.193-18.872-15.58-25.305-4.789-2.955-16.578-8.101-35.369-15.342-19.492-7.53-33.211-15.056-41.202-22.49-9.458-8.719-14.187-18.964-14.187-30.69 0-10.432 3.565-19.87 10.626-28.351 13.773-16.202 36.070-24.303 66.822-24.303 17.573 0 35.723 3.382 54.398 10.196l-7.355 20.254c-17.916-10.153-34.317-15.251-49.257-15.251-11.967 0-21.652 3.050-29.066 9.198-6.246 5.337-9.396 11.723-9.396 19.155 0 7.717 3.151 14.058 9.512 18.964 6.303 4.955 19.261 11.056 38.87 18.297 21.537 8.101 36.128 15.962 43.775 23.636 9.573 9.674 14.355 20.872 14.355 33.642 0 10.863-3.502 20.921-10.445 30.164-14.010 18.632-37.298 27.923-69.919 27.923-11.732 0-22.415-1.094-32.043-3.287-9.631-2.191-20.488-6.005-32.571-11.391zM1689.392 296.307h121.045v15.487c-3.563-0.906-7.178-1.382-10.972-1.382h-69.568v72.571h67.697c4.904 0 9.165-0.427 12.842-1.238v15.487c-3.093-0.571-7.236-0.858-12.491-0.858h-68.048v75.146h67.527c3.791 0 8.111-0.476 13.012-1.382v16.724h-120.873c0.875-2.811 1.345-5.813 1.345-9.054v-172.303c0-3.813-0.524-6.863-1.515-9.198zM2037.205 303.837v23.588c-21.421-11.914-42.603-17.87-63.614-17.87-22.766 0-41.206 6.339-55.214 19.013-8.756 7.912-14.767 16.584-17.92 26.114-4.026 11.434-6.010 24.11-6.010 37.977 0 28.542 7.88 49.842 23.579 63.804 13.247 11.818 30.642 17.726 52.179 17.726 12.549 0 24.568-2.667 36.068-8.005v-74.384c0-3.431-0.467-6.479-1.341-9.195h40.62c-0.875 2.906-1.341 5.957-1.341 9.195v73.291c0.116 4.288 0.875 8.101 2.216 11.434-20.955 5.622-36.244 9.198-45.875 10.768-9.628 1.573-21.182 2.384-34.664 2.384-24.281 0-44.071-3.526-59.474-10.623-18.502-8.436-32.332-20.872-41.557-37.265-8.111-14.34-12.14-30.878-12.14-49.555 0-33.261 12.665-58.849 37.938-76.815 20.427-14.629 47.507-21.919 81.244-21.919 20.485 0 42.256 3.431 65.308 10.341zM2286.384 296.307c-0.994 2.624-1.515 5.672-1.515 9.198v118.269c0 15.247-4.438 28.162-13.312 38.692-9.042 10.58-20.774 17.822-35.248 21.634-13.774 3.717-28.95 5.573-45.47 5.573-23.807 0-42.487-3.526-55.911-10.623-10.857-5.577-19.259-13.106-25.331-22.541-6.010-9.434-9.049-19.87-9.049-31.209v-119.795c0-3.337-0.52-6.388-1.515-9.198h42.021c-0.987 2.906-1.515 5.908-1.515 9.054v120.508c0 11.342 3.266 20.921 9.747 28.782 10.737 13.007 28.19 19.535 52.468 19.535 21.016 0 37.18-4.575 48.559-13.674 11.381-9.15 17.102-22.11 17.102-38.978v-116.029c-0.12-3.717-0.64-6.768-1.515-9.198zM2385.331 398.518v79.15c0 3.238 0.528 6.288 1.518 9.195h-42.194c0.991-2.431 1.515-5.481 1.515-9.195v-172.307c0-3.146-0.524-6.148-1.515-9.054h70.967c16.17 0 30.349 2.766 42.551 8.245 9.45 4.288 16.922 10.15 22.35 17.584 5.602 7.53 8.402 16.106 8.402 25.683 0 21.299-12.31 35.833-36.943 43.553-6.708 2.049-15.353 3.908-25.971 5.573l76.631 82.39c3.153 3.337 6.303 5.861 9.4 7.53h-50.953c-1.164-2.906-2.802-5.622-4.962-8.245zM2385.161 387.606h18.145c10.568 0 19.673-2.191 27.319-6.575 12.43-7.243 18.615-17.87 18.615-31.833 0-12.912-5.251-23.206-15.696-30.831-7.648-5.477-18.328-8.245-32.158-8.245h-16.224zM2643.903 293.496c34.436 0 61.752 7.721 81.943 23.161 22.126 17.151 33.156 42.025 33.156 74.716 0 32.211-10.568 56.898-31.634 74-19.962 16.202-47.976 24.303-83.986 24.303-37.587 0-66.013-8.672-85.15-25.968-19.615-17.679-29.42-42.316-29.42-73.86 0-20.015 4.669-37.406 14.009-52.225 18.263-29.065 51.943-43.742 101.081-44.124zM2644.079 308.316c-25.797 0-44.765 7.91-56.963 23.732-11.027 14.438-16.575 33.784-16.575 58.087 0 56.465 24.632 84.721 73.889 84.721 24.628 0 43.251-7.91 55.915-23.728 6.068-7.53 10.387-15.966 13.069-25.351 2.686-9.339 4.029-20.586 4.029-33.688 0-55.276-24.454-83.198-73.364-83.77zM2794.099 474.998l7.883-22.634c6.242 4.384 11.435 7.717 15.522 10.054 12.318 7.007 25.622 10.485 39.861 10.485 14.358 0 25.622-3.431 33.85-10.341 7.294-6.241 10.915-13.769 10.915-22.586 0-10.436-5.193-18.872-15.58-25.305-4.789-2.955-16.578-8.101-35.369-15.342-19.494-7.53-33.211-15.056-41.206-22.49-9.458-8.719-14.183-18.964-14.183-30.69 0-10.432 3.565-19.87 10.626-28.351 13.773-16.202 36.070-24.303 66.822-24.303 17.573 0 35.723 3.382 54.398 10.196l-7.355 20.254c-17.916-10.153-34.317-15.251-49.257-15.251-11.967 0-21.656 3.050-29.065 9.198-6.246 5.337-9.396 11.723-9.396 19.155 0 7.717 3.151 14.058 9.512 18.964 6.303 4.955 19.261 11.056 38.87 18.297 21.537 8.101 36.128 15.962 43.771 23.636 9.575 9.674 14.358 20.872 14.358 33.642 0 10.863-3.501 20.921-10.445 30.164-14.009 18.632-37.298 27.923-69.919 27.923-11.732 0-22.415-1.094-32.047-3.287-9.628-2.191-20.484-6.005-32.567-11.391zM1716.644 865.105h-139.948c1.3-3.118 1.981-6.884 1.981-11.355v-212.411c0-4.59-0.681-8.412-1.981-11.53h65.794c-1.179 2.998-1.856 6.826-1.979 11.53v196.876h61.274c6.624-0.115 11.575-0.824 14.858-2.058zM1730.687 629.809h188.783v30.653c-5.201-1.114-9.965-1.706-14.36-1.706h-49.145v194.818c0.124 4.708 0.804 8.532 1.979 11.534h-65.794c1.175-3.002 1.856-6.826 1.981-11.534v-194.818h-47.293c-5.074 0-10.458 0.591-16.153 1.706zM1961.553 798.204l-23.216 56.017c-1.311 3.234-2.009 5.944-2.009 8.118 0 0.588 0.074 1.532 0.209 2.766h-37.766c2.772-3.118 4.992-6.71 6.723-10.884l89.18-214.237c1.315-3.352 2.009-6.060 2.009-8.118v-2.058h58.827c-0.141 2.41 0.627 5.646 2.216 9.65l91.396 214.763c1.729 3.942 4.223 7.53 7.482 10.884h-79.544c0.141-1.060 0.207-1.822 0.207-2.41 0-2.298-0.692-5.122-2.009-8.474l-22.589-56.017zM1972.293 772.021h69.842l-34.923-87.73zM1285.461 766.45l-36.634 87.597c-1.707 3.949-2.47 8.382-2.278 13.458h-35.873c3.511-4.753 6.171-9.189 7.781-13.458l124.321-297.040c1.614-4.028 2.47-7.977 2.47-11.766h55.325c0.187 3.303 1.043 6.85 2.561 10.638l128.117 298.168c1.897 3.788 4.93 8.303 9.206 13.458h-74.215c0-4.272-0.948-8.702-2.847-13.458l-36.346-87.597zM1295.236 742.838h121.187l-61.401-145.701zM2239.158 708.945l-23.654 145.098c-0.134 1.176-0.205 1.942-0.205 2.294 0 1.826 0.538 4.766 1.61 8.768h-36.622c2.084-3.884 3.429-7.708 4.1-11.355l36.223-212.941c0.268-1.942 0.401-3.706 0.401-5.294 0-1.532-0.205-3.412-0.607-5.708h59.875c-0.137 1.176-0.202 1.938-0.202 2.41 0 2.178 0.606 4.826 1.75 7.944l61.282 159.279 62.032-159.809c1.278-3.354 1.947-5.886 1.947-7.592 0-0.468-0.076-1.176-0.205-2.232h58.87c-0.268 2.294-0.405 3.882-0.405 4.826 0 1.938 0.137 3.706 0.405 5.178l33.664 214.233c0.672 3.59 2.020 7.298 4.1 11.062h-71.839c0.538-1.942 0.809-3.706 0.809-5.356 0-1.118-0.206-2.94-0.605-5.356l-20.899-147.51-57.053 147.158c-1.414 3.706-2.153 6.532-2.153 8.474 0 0.588 0.068 1.412 0.137 2.588h-54.499c0.134-0.94 0.198-1.706 0.198-2.41 0-1.826-0.672-4.474-1.948-7.944zM2561.496 629.809h65.794c-1.179 2.762-1.856 6.59-1.979 11.53v212.233c0.123 4.946 0.8 8.768 1.979 11.534h-65.794c1.3-3.118 1.981-6.942 1.981-11.534v-212.233c0-4.706-0.681-8.532-1.981-11.53zM2749.231 759.077v94.494c0 4.474 0.681 8.3 1.981 11.534h-65.981c1.175-2.646 1.856-6.474 1.981-11.534v-212.233c0-4.236-0.681-8.060-1.981-11.53h98.848c19.805 0 36.268 4.47 49.455 13.473 17.886 12.18 26.859 29.421 26.859 51.72 0 15.241-4.451 28.067-13.431 38.421-7.24 8.299-20.423 15.593-39.547 21.889l64.063 99.264c3.214 4.942 6.188 8.474 8.848 10.532h-74.519c-0.619-3.764-1.798-7.414-3.654-10.884zM2749.047 740.66h12.685c9.409 0 16.959-2.588 22.656-7.77 8.973-8.176 13.431-19.709 13.431-34.657 0-13.415-3.283-24.121-9.78-32.065-6.563-7.944-15.349-11.886-26.491-11.886h-12.502zM2983.403 766.45l-36.634 87.597c-1.707 3.949-2.47 8.382-2.278 13.458h-35.873c3.511-4.753 6.171-9.189 7.781-13.458l124.321-297.040c1.614-4.028 2.47-7.977 2.47-11.766h55.326c0.186 3.303 1.043 6.85 2.561 10.638l128.117 298.168c1.897 3.788 4.93 8.303 9.206 13.458h-74.215c0-4.272-0.948-8.702-2.847-13.458l-36.346-87.597zM2993.176 742.838h121.187l-61.401-145.701zM531.263 547.793l-115.64 246.406 34.806 13.565 714.030 170.674c4.491 2.262 2.247 7.913 3.37 11.303l-1077.787 2.258c-5.613-2.258-2.247-9.041-3.366-13.563l438.973-444.212h5.613zM758.046 658.563v5.652h-7.86l-191.978-233.974-514.194 551.588h-5.613v-16.953l517.565-930.244h7.857zM1167.83 924.185c0 5.652-1.123 10.173-5.613 13.563l-638.814-145.81v-9.042l298.635-48.605v-15.825l-223.414-678.183c-3.366-7.913 5.613-9.045 11.228-7.913z"></path></svg>